PathFileType	4	(X/Y/Z)	Patient5_TMGait_0pt45_1_right_11.trc.trc
DataRate	CameraRate	NumFrames	NumMarkers	Units	OrigDataRate	OrigDataStartFrame	OrigNumFrames
64.814814814815	64.814814814815	4	32	mm	64.814814814815	18	       141
Frame#	Time	R.ASIS			L.ASIS			Chest			R.Shoulder			Neck			L.Shoulder			L.Elbow			L.Wrist			R.Elbow			R.Wrist			L.Thigh.Superior			L.Thigh.Lateral			L.Thigh.Inferior			L.Patella			L.Shank.Superior			L.Shank.Lateral			L.Shank.Inferior			L.Heel			L.Midfoot.Lateral			L.Midfoot.Superior			L.Toe			R.Thigh.Superior			R.Thigh.Lateral			R.Thigh.Inferior			R.Patella			R.Shank.Superior			R.Shank.Lateral			R.Shank.Inferior			R.Heel			R.Midfoot.Lateral			R.Midfoot.Superior			R.Toe			
		X1	Y1	Z1	X2	Y2	Z2	X3	Y3	Z3	X4	Y4	Z4	X5	Y5	Z5	X6	Y6	Z6	X7	Y7	Z7	X8	Y8	Z8	X9	Y9	Z9	X10	Y10	Z10	X11	Y11	Z11	X12	Y12	Z12	X13	Y13	Z13	X14	Y14	Z14	X15	Y15	Z15	X16	Y16	Z16	X17	Y17	Z17	X18	Y18	Z18	X19	Y19	Z19	X20	Y20	Z20	X21	Y21	Z21	X22	Y22	Z22	X23	Y23	Z23	X24	Y24	Z24	X25	Y25	Z25	X26	Y26	Z26	X27	Y27	Z27	X28	Y28	Z28	X29	Y29	Z29	X30	Y30	Z30	X31	Y31	Z31	X32	Y32	Z32	

18	18.332285714286	918.394094912893	994.027966458911	520.613113936773	897.563409089522	953.128407707209	284.067197345101	966.114238958312	1437.605806532172	401.540133056590	853.481756653427	1502.442844906224	560.781687029317	843.237319905251	1558.970519304933	374.861897472022	919.305002564694	1498.183698693621	201.174074274446	900.463676677642	1168.392269505069	81.472208208795	1036.898968615094	917.310432659671	132.160696054006	747.005130505148	1191.511022876008	702.275520184530	960.554278849369	1001.303838219216	649.679279488903	880.675071042403	728.381193035246	286.880600422608	786.610076487676	673.684301824595	253.517147918888	844.748965254562	601.707202477998	311.074766024045	809.898532495532	489.177127774758	316.687631698012	747.262859462196	398.805785505182	343.250920553102	659.048058471671	345.584170762096	275.309473851538	695.021557067968	284.602521807973	359.642005054667	524.802474825923	63.368471853884	371.138504184226	611.800458191543	32.922995053843	312.220107358890	711.353047192939	90.644024505921	352.557783153756	814.649501942216	44.949195576495	361.106045152088	992.967526378654	789.275469322342	557.828011623427	945.577905791593	697.144197033020	625.538672870097	1033.687275827894	665.820075012331	549.278929022420	1069.399890915699	573.093239901134	589.389691329458	1039.258547001187	460.054007534498	559.454314710062	975.414979191300	386.915978070638	643.468809735032	1035.546651859955	319.882993001550	563.479272253733	937.898479671577	84.591817490396	540.333806883809	1020.401821702228	55.672241185851	610.107903906131	1118.520059017436	133.691712682159	596.266887624284	1225.454360272171	102.353252192061	591.916577962045	
19	18.347714285714	921.975070086683	991.142984461601	522.645488669912	900.303428871080	952.616193286216	285.215757541126	967.485110078154	1436.252523148617	404.125991692330	856.216506173404	1500.259754426739	564.714707249933	843.759796337307	1557.197015611422	378.974612182368	917.968647032136	1497.083776840438	204.201795615422	895.575051750228	1168.110105483799	82.859738979486	1030.218249205332	915.388753223031	130.575522014178	750.793992296695	1189.087788896325	706.336760033012	963.605746139934	998.699702904626	651.290134972340	880.284377491103	727.182367412526	287.627892189718	785.492807369740	673.330524661335	254.519814291325	843.390699863377	600.660031695035	311.553461812491	807.148298903582	488.098777656708	316.862329642344	743.735611934760	398.358630031337	343.565785404572	654.551734419152	346.329800970255	275.934328885439	690.338298730069	284.739350438426	359.850923492720	518.166565222131	64.655793871758	371.219720139929	604.919778987082	33.719510581560	312.244954271250	704.691537554723	90.759515901661	352.362258404851	807.602736431193	44.915402848245	361.005481423930	993.817012576514	783.593813316001	558.236382283750	944.611642811304	691.408844736252	625.163924649545	1032.265530678948	659.478848535464	548.492471166863	1066.394339484366	566.394118169076	587.955653238143	1036.731805510112	454.281595771764	557.305917979118	972.702476344380	380.452432253579	640.737166350859	1033.540795333297	313.987120106470	560.744376108688	936.706095324926	79.004019494009	535.942358283432	1019.054319778247	49.311110760825	605.570736917458	1117.320992174241	127.332794231977	592.557079168937	1224.208751824986	95.825789571603	588.017869362207	
20	18.363142857143	925.847456177281	988.078499326198	524.804282872554	903.646647649298	952.176383755913	286.324805019065	969.137478912210	1434.754612999743	406.919493933985	859.298098237121	1497.927304990130	568.869899174782	844.584050271861	1555.281166258868	383.358310637115	916.907381510474	1495.880250039744	207.505352360690	890.782387120884	1167.854528769228	84.368107857489	1023.501293567639	913.452527663035	128.928496029003	755.051665366752	1186.450731599217	710.579136897716	967.209453865575	996.029668921048	652.974790905737	880.298935519481	725.917167795160	288.296729087075	784.791341133906	672.887700096695	255.545293937613	842.601963541198	599.544435029311	311.909152412280	804.966900985232	486.777851610276	316.934262826449	740.679577421218	397.752032610500	343.845758057832	650.480205407712	347.022754985854	276.503131299466	685.968614887352	284.757112063101	359.977091022162	511.558231664563	66.079488214715	371.237895514364	598.064511311650	34.596234526673	312.234562927546	698.076672628305	90.913136858288	352.120683079747	800.543220568149	44.884945578443	360.896944122763	994.576705747001	777.439089401900	558.743927907112	943.147782819901	685.386522123488	624.797889492591	1030.393300105324	652.733668233413	547.776798902814	1062.737677958042	559.294861349399	586.501387910741	1033.588285992569	448.226806610247	555.059720190753	969.312953869445	373.726168231841	637.861426634219	1030.929526285952	307.825244951594	557.906950841244	934.844666482216	73.387188839116	531.455576260465	1016.902588225220	42.992063612447	601.094017594988	1115.516489980879	120.645609782094	588.602924488866	1222.283801187850	88.645860096394	584.032821675852	
21	18.378571428571	929.966120381655	984.898650051406	527.069219693206	907.263744349317	951.640381148820	287.553788894922	971.084200037565	1433.141211923936	409.921009611269	862.745182971871	1495.467886252819	573.248916605917	845.732467918581	1553.266331647074	388.011335189479	916.122959573011	1494.593321748957	211.081506486893	886.089096709387	1167.631772908801	86.037014872091	1016.761053941986	911.526133725048	127.243975175159	759.829845538639	1183.615780118243	715.024442485824	971.352290235201	993.255556457607	654.719403479049	880.792850316629	724.599219440889	288.945455126041	784.590248883497	672.346080792630	256.625636528030	842.459938979827	598.369470210705	312.186972444525	803.429661585567	485.187423735048	316.950167164112	738.144026122390	396.971240738154	344.097729980548	646.905769800434	347.663882641370	277.003677048698	681.946451268238	284.669350373759	360.047800936106	504.976562452688	67.669677455755	371.178937439120	591.242460928436	35.562469673277	312.183756716171	691.526777644152	91.113090246072	351.828099799545	793.475871858737	44.855563817292	360.783228483514	995.278797090408	771.013969035510	559.350339684495	941.334189062939	679.286271752584	624.467987363880	1028.199290350615	645.826192259815	547.130194079716	1058.660623540509	552.041821125311	585.000166571804	1029.985855805788	442.094749908585	552.713737568724	965.460518363356	366.983246950493	634.897599572844	1027.807931532650	301.611595151526	554.961545484259	932.273051011985	67.979926907094	526.984181553986	1013.899529972569	37.081038091802	596.832913017332	1113.094526168222	113.894468028819	584.355637480073	1219.653964615108	81.005659638803	579.987582849675	
